<svg xmlns="http://www.w3.org/2000/svg" width="48" height="48" fill="none"><path stroke="#198038" stroke-linecap="round" stroke-linejoin="round" stroke-width="2.25" d="M8.396 16.801c0-2.73 0-4.096.572-5.139a5.079 5.079 0 0 1 2.294-2.13C12.386 9 13.856 9 16.796 9h14.7c2.941 0 4.411 0 5.535.532a5.079 5.079 0 0 1 2.294 2.13c.572 1.043.572 2.409.572 5.14v8.776c0 2.73 0 4.096-.572 5.139a5.08 5.08 0 0 1-2.294 2.13c-1.124.532-2.594.532-5.534.532H20.093c-1.092 0-1.638 0-2.16.1a5.522 5.522 0 0 0-1.334.434c-.474.225-.9.542-1.754 1.175L10.67 38.19c-.728.54-1.092.811-1.398.812a.902.902 0 0 1-.685-.306c-.191-.223-.191-.656-.191-1.522V16.801Z"/><path stroke="#198038" stroke-linecap="round" stroke-width="2.25" d="M16.08 18.376h16.5M16.08 24.376h3M23.58 24.376h9"/></svg>