<svg xmlns="http://www.w3.org/2000/svg" width="48" height="48" fill="none"><path stroke="#198038" stroke-linecap="round" stroke-width="2.25" d="M16.18 39.502h15.717M24.038 38.867V31.5"/><path stroke="#198038" stroke-width="2.25" d="M32.999 10.499h6a1.5 1.5 0 0 1 1.5 1.5v1.937c0 4.637-3.059 8.73-7.5 10.062M15 10.499H9a1.5 1.5 0 0 0-1.5 1.5v1.937A10.52 10.52 0 0 0 15 23.998"/><path stroke="#198038" stroke-width="2.25" d="M15.003 9.458c0-.486.413-.881.922-.881h16.154c.508 0 .922.395.922.881v13.444c0 4.747-4.029 8.595-9 8.595-4.97 0-8.998-3.848-8.998-8.595V9.458Z" clip-rule="evenodd"/><path stroke="#198038" stroke-linecap="round" stroke-width="2.25" d="M27.911 18.259c0 .481 0 .932-.004 1.353-.033 3.398-.335 4.897-3.072 5.24"/></svg>