<svg width="48" height="48" xmlns="http://www.w3.org/2000/svg" fill="none">

 <g>
  <title>Layer 1</title>
  <path id="svg_1" clip-rule="evenodd" d="m7.502,10.125a2.625,2.625 0 0 1 2.625,-2.625l28.503,0a2.625,2.625 0 0 1 2.625,2.625l0,7.5a2.625,2.625 0 0 1 -2.625,2.626l-10.877,0l0,7.875a2.625,2.625 0 0 1 -2.625,2.625l-6.375,0l0,7.875a2.625,2.625 0 0 1 -2.625,2.626l-6,0a2.625,2.625 0 0 1 -2.626,-2.626l0,-28.5l0,-0.001zm2.25,18.376l15.376,0a0.375,0.375 0 0 0 0.375,-0.375l0,-7.875l-15.75,0l0,8.25l-0.001,0zm0,2.25l0,7.875c0,0.208 0.168,0.376 0.375,0.376l6,0a0.375,0.375 0 0 0 0.376,-0.376l0,-7.875l-6.75,0l-0.001,0zm28.877,-12.75l-28.877,0l0,-7.876c0,-0.207 0.168,-0.375 0.375,-0.375l28.503,0c0.207,0 0.375,0.168 0.375,0.375l0,7.5a0.375,0.375 0 0 1 -0.375,0.376l-0.001,0z" fill-rule="evenodd" fill="#198038"/>
 </g>
</svg>