<svg xmlns="http://www.w3.org/2000/svg" width="48" height="48" fill="none"><path stroke="#198038" stroke-width="2.25" d="m24 35.96-7.19 3.78c-2.2 1.156-4.772-.712-4.352-3.163l1.373-8.006-5.817-5.67c-1.78-1.735-.798-4.759 1.663-5.116l8.038-1.168 3.595-7.284c1.1-2.23 4.28-2.23 5.38 0l3.595 7.284 8.038 1.168c2.46.357 3.443 3.38 1.663 5.116l-5.817 5.67 1.373 8.006c.42 2.45-2.152 4.32-4.352 3.162L24 35.96Z" clip-rule="evenodd"/><path stroke="#198038" stroke-linecap="round" stroke-width="2.25" d="m24.837 16.676 2.193 4.478 5.719.9"/></svg>