<svg xmlns="http://www.w3.org/2000/svg" width="48" height="48" fill="none"><path stroke="#198038" stroke-linejoin="round" stroke-width="2.25" d="M39.12 32.348c1.962-1.469 2.942-3.836 2.942-6.175 0-3.812-2.75-7.076-6.429-7.65-.595-5.789-5.582-10.2-11.572-10.2-5.12 0-9.404 3.085-10.928 7.65-4.013.905-7.072 4.68-7.072 8.925 0 4.935 4.03 8.926 9 8.926h5.198"/><path stroke="#198038" stroke-linecap="round" stroke-linejoin="round" stroke-width="2.25" d="M17.553 20.796c1.046-3.58 3.987-6 7.5-6"/><path stroke="#198038" stroke-linejoin="round" stroke-width="2.25" d="M24.009 29.626c.488 0 .92-.315 1.07-.78.24-.741.648-1.652 1.464-2.38.793-.709 2.08-1.34 4.264-1.34 2.276 0 3.724.819 4.643 1.808a5.924 5.924 0 0 1 1.503 3.202c.062.515.467.92.981.982 1.285.156 2.088.68 2.56 1.293.482.626.688 1.434.607 2.262-.162 1.662-1.436 3.203-3.592 3.203H25.158c-.667 0-1.862-.18-2.85-.776-.92-.554-1.674-1.463-1.674-3.099 0-1.702.648-2.777 1.376-3.437.775-.704 1.638-.938 1.999-.938Z"/></svg>